<svg xmlns="http://www.w3.org/2000/svg" width="912" height="306" preserveAspectRatio="none" viewBox="0 0 2048 687"><defs><linearGradient id="v" x1="1708.24" x2="1680.62" y1="399.81" y2="318.643" gradientUnits="userSpaceOnUse"><stop class="stop0" offset="0" stop-color="#80B4E8"/><stop class="stop1" offset="1" stop-color="#3CEDFD"/></linearGradient><linearGradient id="u" x1="1809.15" x2="1748.74" y1="487.028" y2="433.091" gradientUnits="userSpaceOnUse"><stop class="stop0" offset="0" stop-color="#F51AA6"/><stop class="stop1" offset="1" stop-color="#CA33BF"/></linearGradient><linearGradient id="t" x1="1846.19" x2="1846.66" y1="502.256" y2="417.286" gradientUnits="userSpaceOnUse"><stop class="stop0" offset="0" stop-color="#C51399"/><stop class="stop1" offset="1" stop-color="#861BA3"/></linearGradient><linearGradient id="s" x1="1312.89" x2="1322.39" y1="517.4" y2="403.211" gradientUnits="userSpaceOnUse"><stop class="stop0" offset="0" stop-color="#EB0D91"/><stop class="stop1" offset="1" stop-color="#7F1CA3"/></linearGradient><linearGradient id="r" x1="996.999" x2="997.522" y1="513.757" y2="399.125" gradientUnits="userSpaceOnUse"><stop class="stop0" offset="0" stop-color="#ED0C8F"/><stop class="stop1" offset="1" stop-color="#801BA2"/></linearGradient><linearGradient id="q" x1="221.029" x2="236.354" y1="496.711" y2="392.003" gradientUnits="userSpaceOnUse"><stop class="stop0" offset="0" stop-color="#EC1EA8"/><stop class="stop1" offset="1" stop-color="#C548CC"/></linearGradient><linearGradient id="p" x1="314.471" x2="301.619" y1="316.884" y2="331.017" gradientUnits="userSpaceOnUse"><stop class="stop0" offset="0" stop-color="#91ABE9"/><stop class="stop1" offset="1" stop-color="#A990E0"/></linearGradient><linearGradient id="o" x1="418.612" x2="431.619" y1="343.327" y2="270.807" gradientUnits="userSpaceOnUse"><stop class="stop0" offset="0" stop-color="#7FBCF0"/><stop class="stop1" offset="1" stop-color="#44ECFF"/></linearGradient><linearGradient id="n" x1="164.791" x2="173.935" y1="489.439" y2="391.334" gradientUnits="userSpaceOnUse"><stop class="stop0" offset="0" stop-color="#BC149C"/><stop class="stop1" offset="1" stop-color="#831EA7"/></linearGradient><linearGradient id="m" x1="561.924" x2="541.392" y1="380.742" y2="311.587" gradientUnits="userSpaceOnUse"><stop class="stop0" offset="0" stop-color="#8FA2E2"/><stop class="stop1" offset="1" stop-color="#64D4F8"/></linearGradient><linearGradient id="l" x1="713.72" x2="707.28" y1="518.022" y2="391.978" gradientUnits="userSpaceOnUse"><stop class="stop0" offset="0" stop-color="#F00C90"/><stop class="stop1" offset="1" stop-color="#7D1BA2"/></linearGradient><linearGradient id="k" x1="240.67" x2="260.183" y1="383.055" y2="385.253" gradientUnits="userSpaceOnUse"><stop class="stop0" offset="0" stop-color="#AA43BE"/><stop class="stop1" offset="1" stop-color="#CC53CD"/></linearGradient><linearGradient id="j" x1="206.641" x2="218.683" y1="382.331" y2="308.685" gradientUnits="userSpaceOnUse"><stop class="stop0" offset="0" stop-color="#F041D0"/><stop class="stop1" offset="1" stop-color="#AD94E4"/></linearGradient><linearGradient id="i" x1="598.938" x2="627.807" y1="189.099" y2="85.949" gradientUnits="userSpaceOnUse"><stop class="stop0" offset="0" stop-color="#4BC0EE"/><stop class="stop1" offset="1" stop-color="#24DCF9"/></linearGradient><linearGradient id="h" x1="431.862" x2="440.251" y1="505.598" y2="307.095" gradientUnits="userSpaceOnUse"><stop class="stop0" offset="0" stop-color="#9F0E9B"/><stop class="stop1" offset="1" stop-color="#6946BA"/></linearGradient><linearGradient id="g" x1="982.82" x2="984.941" y1="366.88" y2="309.593" gradientUnits="userSpaceOnUse"><stop class="stop0" offset="0" stop-color="#584DB6"/><stop class="stop1" offset="1" stop-color="#4F73C6"/></linearGradient><linearGradient id="f" x1="950.294" x2="947.238" y1="206.079" y2="262.869" gradientUnits="userSpaceOnUse"><stop class="stop0" offset="0" stop-color="#71066D"/><stop class="stop1" offset="1" stop-color="#AE0F86"/></linearGradient><linearGradient id="e" x1="940.178" x2="931.199" y1="158.653" y2="269.816" gradientUnits="userSpaceOnUse"><stop class="stop0" offset="0" stop-color="#2F0456"/><stop class="stop1" offset="1" stop-color="#9B0C81"/></linearGradient><linearGradient id="d" x1="1806.06" x2="1805.94" y1="329.08" y2="389.834" gradientUnits="userSpaceOnUse"><stop class="stop0" offset="0" stop-color="#4985CE"/><stop class="stop1" offset="1" stop-color="#5B39A8"/></linearGradient><linearGradient id="c" x1="1409.88" x2="1408.35" y1="290.964" y2="370.108" gradientUnits="userSpaceOnUse"><stop class="stop0" offset="0" stop-color="#4299D7"/><stop class="stop1" offset="1" stop-color="#5752B7"/></linearGradient><linearGradient id="b" x1="1601.32" x2="1603.42" y1="329.368" y2="272.396" gradientUnits="userSpaceOnUse"><stop class="stop0" offset="0" stop-color="#4A84CE"/><stop class="stop1" offset="1" stop-color="#3BB0E4"/></linearGradient><linearGradient id="a" x1="1255.49" x2="1296.13" y1="398.702" y2="146.655" gradientUnits="userSpaceOnUse"><stop class="stop0" offset="0" stop-color="#5D71C4"/><stop class="stop1" offset="1" stop-color="#24F3FF"/></linearGradient></defs><path fill="#280453" d="M629.107 8.974c14.87.017 29.74-.058 44.609-.226a542.18 542.18 0 0 0-.569 31.364c5.114.296 10.829.49 15.835 1.294-.037 10.912-4.357 31.449 10.885 32.036 20.305.782 40.674.363 61.002.824l174.213 3.727c21.038.242 42.072.74 63.098 1.497 6.7.232 25.18.588 30.55 1.577 25.15 4.636 56.69 19.217 80.44 29.539l178.65 79.454c24.04 10.486 55.33 25.122 79.74 32.584 9.36 2.862 39.51 6.616 50.75 8.227l104.58 14.131a26461.403 26461.403 0 0 0 315.24 44.46c30.1 3.624 60.18 7.447 90.24 11.471 12.28 1.589 43.09 4.972 53.66 9.014 19.21 7.343 25.22 59.978 36.15 77.355 7.55 11.997 12.41 8.995 19.7 21.874 2.86 67.9-25.23 68.633-81.12 90.03-7 2.683-15.53 5.147-22.09 8.662-22.4 12.008 7.55 34.022 13.8 48.889-17.49 3.671-53.82 6.271-72.56 8.116a4637.218 4637.218 0 0 1-132.39 12.256c-6.64 10.818-13.34 22.132-21.26 32.012-23.24 29.012-58.33 51.555-94.5 60.193a169.24 169.24 0 0 1-129.31-19.891c-36.41-22.398-54.89-49.142-72.67-86.449l-13.59.157c-1.75 3.814-4.55 10.409-6.52 13.856l-113.11.09-32.55.11-10.66-.212c-10.78.741-28.48.227-39.69.222l-75.29-.033c-93.07.078-188.312-1.263-281.174.164l-10.671-.091a2359.238 2359.238 0 0 0-51.173-.027c-59.548-1.37-121.365.371-181.056.523-11.58.03-15.539-9.995-26.262-7.551-4.266 4.912-9.607 14.927-13.241 20.99-28.591 47.7-81.759 78.863-137.173 82.78a169.326 169.326 0 0 1-123.863-41.299c-24.506-21.264-40.633-46.615-51.722-76.926-14.469-4.176-60.574-26.31-75.765-33.258l-74.758-34.572c-19.922-9.263-77.536-34.404-91.549-53.689-5.422-7.463-7.728-55.078-5.304-65.765 1.587-7.327 18.969-18.619 24.143-24.791 3-17.647 7.373-118.396 19.816-125.68 28.902-16.92 80.606-25.239 113.856-35.33 102.513-28.669 205.329-52.566 308.598-78.162 26.24-6.504 63.443-13.36 88.347-23.429 14.343-5.799 27.566-31.52 36.186-40.426 9.584-.448 17.71-.502 27.311-.341l.191-31.33z"/><path fill="#D5138F" d="m852.972 552.808 285.448.136 72.52-.103c8.08-.028 30.7-.653 37.58.561-.1 8.518.23 15.09.83 23.593-10.78.741-28.48.227-39.69.222l-75.29-.033c-93.07.078-188.312-1.263-281.174.164l-.224-24.54zM800.238 552.85c13.754.013 28.139-.171 41.846.054.08 7.742-.026 16.743.441 24.353a2359.238 2359.238 0 0 0-51.173-.027c2.891-7.979 6.218-16.403 8.886-24.38zM1259.06 553.792c5.35-1.523 17.24-1.1 23.21-1.013 3.1 6.275 9.05 17.737 10.29 24.318l-32.55.11c0-6.282.39-17.691-.95-23.415z"/><path fill="url(#a)" d="M664.538 90.132c30.939-.706 59.517.827 90.136 1.53l146.637 3.732c25.575.86 51.251 1.011 76.806 2.252 13.162.639 27.443.775 40.323 3.057 27.83-2.268 94.29 30.544 121.6 43.307l78.82 36.695c23.12 10.885 51.71 22.954 73.27 37.133 2.17 1.423 2.55 6.157 2.39 8.679 8.62 7.103 18.36 9.896 28.6 20.079 20.79 9.629 34.05 3.029 54.81.151 4.81-.666 19.52.608 24.73 1.26 39.58 4.96 79.26 10.785 118.76 16.417l250.94 35.917 83.32 11.291c12.82 1.723 26.32 3.949 39.12 5.204 11.43 1.122 13.83.678 13.61 12.639 2.28 20.215 1.55 45.608 3.9 64 .37 3.205.79 6.289.77 9.521-.08 2.992.35 5.247-1.04 7.56-15.97-.294-155.4-8.419-161.73-11.263l-.69 1.021c1.38 4.716 3.64 8.067 6.15 12.269-2.81-.131-5.62.326-7.24-1.283l2.77-1.077c-1.11-5.078-5.91-12.239-9.23-16.288-2.7-1.105-4.31-1.987-7.26-1.574l-.91 1.44c3.22 8.85 12.8 16.708 13.58 25.205-5.81-9.173-11.92-17.681-18.21-26.507 6.21-1.502 10.56-1.02 16.86-.686.02-.37 1.72-9.805 1.86-10.327-8.15-13.135-31.21-33.121-43.03-42.815-5.18-3.497-15.29-10.439-20.83-12.156-3.89-.552-4.89-.688-8.41-2.391-4.49.174-10.74.073-14.74 1.667-7.83 9.774-11.86 4.645-15.38 8.931.56 2.673 1.56 4.111 3.63 5.989-49.05-13.763-95.26-9.185-142.35 9.967l-.56.343c-5.81 3.513-14.96 7.105-19.97 10.372-7.59 4.945-19.1 14.601-25.79 20.806-1.65.474-21.74.404-26.66.856-1.15 1.605-7.24 10.335-8.17 11.161-4.23-2.226-142.17-4.032-158.43-4.323.92-4.26 1.41-5.509 3.09-9.396l4.13-11.599c10.15-23.649 19.96-52.521 30.82-75.075 3.38-11.002 9.46-24.302 13.54-35.523-2.63-.715-6.63-2.292-8.87-1.192-5.37 8.586-9.84 24.269-14.56 33.965-5.9 19.932-22.75 57.492-30.64 78.897l-4.48 10.298c-1.01 3.125-2.24 6.625-3.06 9.772-97.9-2.636-195.82-4.627-293.756-5.974-32.958-.091-65.916-.36-98.871-.808-9.039-.087-39.605.136-47.77-1.068-8.144.593-81.664-.178-86.348-1.736-.395-1.651-2.539-6.733-3.265-8.573l-5.983-11.102c-4.953-6.599-24.184-41.447-28.663-49.783-6.399-11.072-25.413-42.292-28.347-53.394-2.103-7.958-.978-46.31-.869-56.601l1.14-110.869z"/><path fill="url(#b)" d="M1318.88 258.3c10.31 8.293 35.07 7.315 48.56 8.336 20.58 1.735 41.14 3.664 61.69 5.787a18175 18175 0 0 1 385.65 44.721c12.56 1.699 65.36 6.21 73.02 9.358 6.89.87 13.76 1.861 20.61 2.973 2.28 20.215 1.55 45.608 3.9 64 .37 3.205.79 6.289.77 9.521-.08 2.992.35 5.247-1.04 7.56-15.97-.294-155.4-8.419-161.73-11.263l-.69 1.021c1.38 4.716 3.64 8.067 6.15 12.269-2.81-.131-5.62.326-7.24-1.283l2.77-1.077c-1.11-5.078-5.91-12.239-9.23-16.288-2.7-1.105-4.31-1.987-7.26-1.574l-.91 1.44c3.22 8.85 12.8 16.708 13.58 25.205-5.81-9.173-11.92-17.681-18.21-26.507 6.21-1.502 10.56-1.02 16.86-.686.02-.37 1.72-9.805 1.86-10.327-8.15-13.135-31.21-33.121-43.03-42.815-5.18-3.497-15.29-10.439-20.83-12.156-3.89-.552-4.89-.688-8.41-2.391-4.49.174-10.74.073-14.74 1.667-7.83 9.774-11.86 4.645-15.38 8.931.56 2.673 1.56 4.111 3.63 5.989-49.05-13.763-95.26-9.185-142.35 9.967l-.56.343c-5.81 3.513-14.96 7.105-19.97 10.372-7.59 4.945-19.1 14.601-25.79 20.806-1.65.474-21.74.404-26.66.856-1.15 1.605-7.24 10.335-8.17 11.161-4.23-2.226-142.17-4.032-158.43-4.323.92-4.26 1.41-5.509 3.09-9.396l4.13-11.599c10.15-23.649 19.96-52.521 30.82-75.075 3.38-11.002 9.46-24.302 13.54-35.523z"/><path fill="url(#c)" d="M1305.34 293.823c8.93 2.484 36.79-4.794 48.18-4.323 19.57.809 39.25 3.343 58.77 4.19 18.06-.157 35.65 1.116 53.56 3.372 6.19.78 22.86-.261 27.7 1.146 9.13 2.659 40.99 5.213 47.6 8.581l.17.773c-1.78 1.008-2.7.93-4.68 1.042-.68.645-1.37 1.101-1.62 1.899-15.39 4.356-36.95 11.338-50 21.059 11.27-.283 13.51-14.778 27.51-.481.97.994 17.26 5.227 19.55 7.518-2.52 2.755-23.78 7.588-26.64 11.204l1.44.875-.56.343c-5.81 3.513-14.96 7.105-19.97 10.372-7.59 4.945-19.1 14.601-25.79 20.806-1.65.474-21.74.404-26.66.856-1.15 1.605-7.24 10.335-8.17 11.161-4.23-2.226-142.17-4.032-158.43-4.323.92-4.26 1.41-5.509 3.09-9.396l4.13-11.599c10.15-23.649 19.96-52.521 30.82-75.075z"/><path fill="#50DEF6" d="M1485.02 331.562c11.27-.283 13.51-14.778 27.51-.481.97.994 17.26 5.227 19.55 7.518-2.52 2.755-23.78 7.588-26.64 11.204l1.44.875-.56.343c-5.81 3.513-14.96 7.105-19.97 10.372-7.59 4.945-19.1 14.601-25.79 20.806-1.65.474-21.74.404-26.66.856-1.15 1.605-7.24 10.335-8.17 11.161-4.23-2.226-142.17-4.032-158.43-4.323.92-4.26 1.41-5.509 3.09-9.396l4.13-11.599c11.8 1.612 32.47 1.428 44.81 1.613 26.22.248 52.43.629 78.64 1.142 6.05.124 29.9.397 34.4 1.855.81-.135 1.59-.336 2.39-.517 7.14-1.61 34.54-34.196 50.26-41.429z"/><path fill="#38CDF5" d="M1485.02 331.562c11.27-.283 13.51-14.778 27.51-.481.97.994 17.26 5.227 19.55 7.518-2.52 2.755-23.78 7.588-26.64 11.204l1.44.875-.56.343c-5.81 3.513-14.96 7.105-19.97 10.372-7.59 4.945-19.1 14.601-25.79 20.806-1.65.474-21.74.404-26.66.856-12.22-.162-28.63.255-40.4-.89 9.24-1.404 36.41 1.61 41.6-3.136.35-1.849.69-2.813 1.73-4.402-2.79.578-.07-.568-4.46-1.119.81-.135 1.59-.336 2.39-.517 7.14-1.61 34.54-34.196 50.26-41.429z"/><path fill="#5D50BE" d="M1267.3 389.893c.92-4.26 1.41-5.509 3.09-9.396 29.15-1.268 60.43 1.167 89.78 1.273 9.66.035 24.23 1.023 33.33.395 11.77 1.145 28.18.728 40.4.89-1.15 1.605-7.24 10.335-8.17 11.161-4.23-2.226-142.17-4.032-158.43-4.323z"/><path fill="url(#d)" d="M1887.8 326.502c6.89.87 13.76 1.861 20.61 2.973 2.28 20.215 1.55 45.608 3.9 64 .37 3.205.79 6.289.77 9.521-.08 2.992.35 5.247-1.04 7.56-15.97-.294-155.4-8.419-161.73-11.263l-.69 1.021c1.38 4.716 3.64 8.067 6.15 12.269-2.81-.131-5.62.326-7.24-1.283l2.77-1.077c-1.11-5.078-5.91-12.239-9.23-16.288-2.7-1.105-4.31-1.987-7.26-1.574l-.91 1.44c3.22 8.85 12.8 16.708 13.58 25.205-5.81-9.173-11.92-17.681-18.21-26.507 6.21-1.502 10.56-1.02 16.86-.686.02-.37 1.72-9.805 1.86-10.327-8.15-13.135-31.21-33.121-43.03-42.815-.7-1.941-1.76-1.698-2.25-4.191 20.42-11.978 79.78-2.473 105.4-2.99 14.83-.3 30.42-1.264 45.29-1.418 11.63-.12 33.04 3.091 44.1.249-2.14-2.135-9.19-1.164-11.85-3.251l2.15-.568z"/><path fill="#38CDF5" d="M1747.99 381.486c10.93 2.362 46.22 3.86 59.86 4.691 34.68 2.116 69.9 5.441 104.46 7.298.37 3.205.79 6.289.77 9.521-.08 2.992.35 5.247-1.04 7.56-15.97-.294-155.4-8.419-161.73-11.263l-.69 1.021c1.38 4.716 3.64 8.067 6.15 12.269-2.81-.131-5.62.326-7.24-1.283l2.77-1.077c-1.11-5.078-5.91-12.239-9.23-16.288-2.7-1.105-4.31-1.987-7.26-1.574l-.91 1.44c3.22 8.85 12.8 16.708 13.58 25.205-5.81-9.173-11.92-17.681-18.21-26.507 6.21-1.502 10.56-1.02 16.86-.686.02-.37 1.72-9.805 1.86-10.327z"/><path fill="#5D50BE" d="M1729.27 392.499c6.21-1.502 10.56-1.02 16.86-.686 22.08 2.261 47.37 3.199 69.82 4.53 32.4 1.832 64.78 4.05 97.13 6.653-.08 2.992.35 5.247-1.04 7.56-15.97-.294-155.4-8.419-161.73-11.263l-.69 1.021c1.38 4.716 3.64 8.067 6.15 12.269-2.81-.131-5.62.326-7.24-1.283l2.77-1.077c-1.11-5.078-5.91-12.239-9.23-16.288-2.7-1.105-4.31-1.987-7.26-1.574l-.91 1.44c3.22 8.85 12.8 16.708 13.58 25.205-5.81-9.173-11.92-17.681-18.21-26.507z"/><path fill="#50DEF6" d="M1535.02 310.503c40.93-8.02 113.42-9.066 149.11 16.012-3.89-.552-4.89-.688-8.41-2.391-4.49.174-10.74.073-14.74 1.667-7.83 9.774-11.86 4.645-15.38 8.931.56 2.673 1.56 4.111 3.63 5.989-49.05-13.763-95.26-9.185-142.35 9.967l-1.44-.875c2.86-3.616 24.12-8.449 26.64-11.204-2.29-2.291-18.58-6.524-19.55-7.518-14-14.297-16.24.198-27.51.481 13.05-9.721 34.61-16.703 50-21.059z"/><path fill="url(#e)" d="M697.902 192.174c.789-4.737 1.529-16.257 5.381-19.029 19.313-13.901 156.137-10.266 187.098-10.648 21.983-.27 43.9-2.51 65.896-1.818 22.516.709 46.263 2.424 68.393 6.521 27.7 5.127 54.3 12.322 81.26 20.281 10.8 3.186 21.98 6.014 32.53 9.914 10.96 4.05 20.78 10.576 31.83 14.605l-13.68.085.38.574c3.33.29 16.09-.274 17.14-.051l.61 1.691c-4.84 10.102-17.32 23.837-13.18 39-1.01 4.239-2.8 10.907-3.33 15.022l-.35-2.37c-3.49-2.243-36.05 1.371-42.57-3.354-1.11-.804-7.11-3.403-8.67-4.164l-.3 1.589c2.76 1.272 3.81 1.625 5.93 3.76l-.07 1.082c-4.38-.396-10.24-2.475-13.12-1.53-3.99 2.864-52.33-.184-60.62-.214-23.68-.088-48.218-.789-71.899-1.561l-192.616-5.053c-18.637-.864-37.493-.162-56.046-1.521-19.092-1.398-22.687-14.112-21.625-30.557.692-10.707.444-21.459 1.628-32.254z"/><path fill="url(#f)" d="M791.09 251.835c2.676 2.036 3.057 2.152 6.421 2.128 11.641-4.031 35.046-47.785 42.75-50.529 8.6-3.063 64.393.767 76.167.892 24.586.261 46.096 1.429 70.37 2.452 5.517.327 12.106 2.777 17.052 5.19 29.25 14.278 65.69 40.169 95.23 51.366-3.99 2.864-52.33-.184-60.62-.214-23.68-.088-48.218-.789-71.899-1.561l-192.616-5.053c3.671-2.581 7.78-1.862 12.303-2.316 4.746-.477 1.232-.366 4.842-2.355z"/><path fill="#50DEF6" d="M791.09 251.835c6.666-10.564 38.162-55.71 48.081-58.157 11.573-2.857 147.617 1.334 157.786 4.512 15.603 4.876 31.463 16.054 45.833 24.061 21.29 11.863 43.27 23.158 63.85 36.182l-.3 1.589c2.76 1.272 3.81 1.625 5.93 3.76l-.07 1.082c-4.38-.396-10.24-2.475-13.12-1.53-29.54-11.197-65.98-37.088-95.23-51.366-4.946-2.413-11.535-4.863-17.052-5.19-24.274-1.023-45.784-2.191-70.37-2.452-11.774-.125-67.567-3.955-76.167-.892-7.704 2.744-31.109 46.498-42.75 50.529-3.364.024-3.745-.092-6.421-2.128z"/><path fill="url(#g)" d="M1262.69 281.059c-1.51 6.86-44.9 31.567-48.55 37.036 4.82 7.051 21.57 7.08 29.78 7.975 11.65 1.271 21.68 3.995 32.94 6.924 5.14-8.458 11.54-31.342 16.72-41.262.72-.254 1.34-.474 1.87-.659-5.9 19.932-22.75 57.492-30.64 78.897l-4.48 10.298c-1.01 3.125-2.24 6.625-3.06 9.772-97.9-2.636-195.82-4.627-293.756-5.974-32.958-.091-65.916-.36-98.871-.808-9.039-.087-39.605.136-47.77-1.068-8.144.593-81.664-.178-86.348-1.736-.395-1.651-2.539-6.733-3.265-8.573l-5.983-11.102c-4.953-6.599-24.184-41.447-28.663-49.783.975-2.093 2.472-5.596 4.568-6.43 10.165-4.041 18.013-6.035 28.26-2.572 4.064-9.25 12.117-12.969 20.026-5.268a53.35 53.35 0 0 1 2.322-.364c10.388-1.322 4.946 5.189 9.99 8.706 2.525 1.761 7.963 2.801 11.121 2.975 23.206 1.28 46.475 1.333 69.694 2.28a6774.207 6774.207 0 0 0 220.705 6.315c18.4.549 36.78 1.27 55.17 2.166 21.73 1.196 35.85 3.187 57.59.197 3.13-4.349 8.62-25.599 12.17-32.098l.27-.478c-4.93-.65-10.91-1.192-15.46-2.901l-.87-2.448c6.3 2.147 12.51 3.057 19.17 3.151 19.76 1.568 44.77 3.596 64.35 3.859 3.74-1.927 6.89-5.018 11-7.027z"/><path fill="#50DEF6" d="M721.277 360.779c3.294-1.699 82.854.766 95.051.887l361.712 6.126c10.96.223 81.62.264 86.77 2.178l-4.48 10.298c-1.01 3.125-2.24 6.625-3.06 9.772-97.9-2.636-195.82-4.627-293.756-5.974-32.958-.091-65.916-.36-98.871-.808-9.039-.087-39.605.136-47.77-1.068-8.144.593-81.664-.178-86.348-1.736-.395-1.651-2.539-6.733-3.265-8.573l-5.983-11.102z"/><path fill="#5D50BE" d="M727.26 371.881c113.744.752 227.481 2.373 341.2 4.862l118.73 1.919c23.49.323 49.99-.14 73.14 1.606-1.01 3.125-2.24 6.625-3.06 9.772-97.9-2.636-195.82-4.627-293.756-5.974-32.958-.091-65.916-.36-98.871-.808-9.039-.087-39.605.136-47.77-1.068-8.144.593-81.664-.178-86.348-1.736-.395-1.651-2.539-6.733-3.265-8.573z"/><path fill="#5962C1" d="M730.525 380.454c9.703-6.182 92.514 1.968 109.996.483l.438.114-.458.677c-5.28.016-18.707-.154-23.628.462-8.144.593-81.664-.178-86.348-1.736z"/><path fill="#7928A7" d="M1187.34 284.227c19.76 1.568 44.77 3.596 64.35 3.859-19.3 16.795-64.5 43.743-86.51 56.86 7.21-16.566 15.63-42.981 22.16-60.719z"/><path fill="#280453" d="M725.442 301.994c4.064-9.25 12.117-12.969 20.026-5.268l1.283 1.104c-.213 5.573.319 11.981-3.999 15.841-1.521 1.36-3.377 1.826-4.573 2.878-9.913-1.506-12.792-4.714-12.737-14.555z"/><path fill="#5D50BE" d="M746.751 297.83c13.93 9.366 6.566 26.953-11.801 21.56 1.88-.783 2.711-1.099 4.457-2.276l-1.228-.565c1.196-1.052 3.052-1.518 4.573-2.878 4.318-3.86 3.786-10.268 3.999-15.841z"/><path fill="#280453" d="M699.04 130.978c3.376-10.34 11.299-14.664 21.905-14.584 41.654.313 83.305 1.007 124.963 1.392l82.573 1.138c49.669.526 76.669-3.911 121.679 21.479 25.38 10.539 55.71 25.971 80.77 37.843 18.53 8.779 46.33 21.571 63.72 31.326-9.51 3.098-14.88 5.835-22.69 12.168-4.4 10.655-6.98 20.602-10.4 31.559-4.14-15.163 8.34-28.898 13.18-39l-.61-1.691c-1.05-.223-13.81.341-17.14.051l-.38-.574 13.68-.085c-11.05-4.029-20.87-10.555-31.83-14.605-10.55-3.9-21.73-6.728-32.53-9.914-26.96-7.959-53.56-15.154-81.26-20.281-22.13-4.097-45.877-5.812-68.393-6.521-21.996-.692-43.913 1.548-65.896 1.818-30.961.382-167.785-3.253-187.098 10.648-3.852 2.772-4.592 14.292-5.381 19.029-.234-19.42.901-41.383 1.138-61.196z"/><path fill="#220240" d="M699.04 130.978c3.376-10.34 11.299-14.664 21.905-14.584 41.654.313 83.305 1.007 124.963 1.392l82.573 1.138c49.669.526 76.669-3.911 121.679 21.479l-2.09.89c-15.37-5.979-34.27-16.688-50.945-18.171-36.549-3.252-73.923-.992-110.718-1.638-5.13-.09-27.677-1.881-27.749-1.875-23.516 1.802-40.897 4.641-64.929 1.784a483.759 483.759 0 0 0 15.308-1.23c-13.118-.78-91.174-2.494-98.578.431-5.663 2.237-7.637 7.263-9.892 12.484l-1.527-2.1z"/><path fill="#280453" d="M1194.65 209.572c10.01 4.486 51.07 23.128 57.36 28.92 23.39 11.363 21.87 20.092 11.02 41.887l-.34.68c-4.11 2.009-7.26 5.1-11 7.027-19.58-.263-44.59-2.291-64.35-3.859-6.66-.094-12.87-1.004-19.17-3.151l-.05-.824c-6.21-2.735-8.26-5.673-9.89-11.931.53-4.115 2.32-10.783 3.33-15.022 3.42-10.957 6-20.904 10.4-31.559 7.81-6.333 13.18-9.07 22.69-12.168z"/><path fill="#EC118E" d="M1194.65 209.572c10.01 4.486 51.07 23.128 57.36 28.92-19.12.259-42.7-6.903-61.76-6.437-11.79.288-15.11 41.725-22.13 48.197-6.21-2.735-8.26-5.673-9.89-11.931.53-4.115 2.32-10.783 3.33-15.022 3.42-10.957 6-20.904 10.4-31.559 7.81-6.333 13.18-9.07 22.69-12.168zM1018.44 100.703c27.83-2.268 94.29 30.544 121.6 43.307l78.82 36.695c23.12 10.885 51.71 22.954 73.27 37.133 2.17 1.423 2.55 6.157 2.39 8.679-4.17.27-4.96.485-8.76 2.206-9.09-4.853-18.33-9.404-27.6-13.92-69.66-33.935-138.48-69.746-209.03-101.809-10.06-4.571-20.49-8.078-30.69-12.291z"/><path fill="#5D50BE" d="M1294.52 226.517c8.62 7.103 18.36 9.896 28.6 20.079-10.58.943-28.61-12.003-37.36-17.873 3.8-1.721 4.59-1.936 8.76-2.206z"/><path fill="url(#h)" d="M429.4 137.256c40.235-11.023 81.753-19.426 122.143-30.004 9.187-2.406 23.482-.982 30.897-5.67 19.13-12.098 18.119-28.282 41.348-10.77 11.24.578 21.104 1.044 32.335.84a9260.82 9260.82 0 0 1-2.269 149.54c-.071 22.946 4.038 26.577 14.882 46.836l23.219 41.279c5.339 9.308 12.615 21.057 17.006 30.577 3.364 4.548 4.951 7.298 7.679 12.277 2.169 3.175 3.69 5.491 5.574 8.877-43.506-.502-86.329-1.943-129.89-1.855 1.762 2.854 5.469 8.516 6.793 11.291l3.908 4.679c41.794.177 90.54.334 132.138 2.16 15.302 25.536 31.928 49.281 48.915 73.644 5.881 8.435 25.963 33.305 29.677 40.824l2.137 2.51-.165.578-1.19 1.08c-61.148.147-151.595-.107-209.425-.278-2.01-56.481-13.16-101.074-53.89-143.111a180.128 180.128 0 0 0-126.632-53.891c-74.917-1.133-141.432 36.16-169.654 107.206-10.096 25.414-11.448 47.057-11.837 74.054-4.743-.554-7.97-.638-12.749-.673-6.326.517-15.589-1.166-21.804-2.469-18.597-5.026-38.085-13.67-56.52-19.786-10.907-3.619-23.027-8.206-33.462-12.834-.764-23.883-.582-49.21-.804-73.207l77.009 2.811c6.649.232 30.153.606 35.184 1.881 4.696-1.702 5.977-3.565 8.938-7.297a51.056 51.056 0 0 0 2.157-3.202c1.549-2.55 2.619-4.693 1.943-7.595-2.752-3.241-2.52-2.448-7.035-3.672-2.68.369-13.34.061-16.615.031-12.743 1.229-31.702.512-44.804.81-5.408.124-11.13-1.543-16.091-1.035l-.405 1.089c2.682 1.762 23.014 2.283 27.939 2.531-1.193.309-2.194.476-3.985.449-21.358-.32-42.737-.623-64.094-.915l-1.401-1.365.429-5.07c-.102-4.716.156-10.379.247-15.172.559-7.347.234-18.223.537-25.997.841-37.777 3.664-77.452 3.473-114.726a6596.08 6596.08 0 0 1 77.86-20.667c11.105-2.966 37.336-10.484 47.786-11.675 5.594-2.117 26.095-7.054 32.42-8.565 17.281-4.129 36.457-9.668 53.704-13.002 3.024-1.361 28.101-7.505 32.803-8.516 20.305-4.365 43.539-11.411 63.641-14.835z"/><path fill="#280453" d="M429.4 137.256c40.235-11.023 81.753-19.426 122.143-30.004 9.187-2.406 23.482-.982 30.897-5.67 19.13-12.098 18.119-28.282 41.348-10.77 11.24.578 21.104 1.044 32.335.84a9260.82 9260.82 0 0 1-2.269 149.54c-3.565-7.809.727-47.923-1.991-54.229-4.206-1.282-11.183-.548-15.813-.314.013 15.229.055 30.041-.553 45.269l-1.256.498c.183 1.056.4 1.947.656 2.987l-.877-1.121.753-1.629-1.098-1.051.113-1.961c-.66 8.044-.423 12.115-7.013 17.642a19.093 19.093 0 0 1-14.307 4.49c-10.508-1.074-15.181-8.434-16.962-17.842-3.553-9.191 4.865-36.915 2.151-47.815-1.3-5.219-21.265-7.595-25.483-6.313-3.651 4.05-6.061 31.817-8.507 40.387l-1.065-.941c-2.229 8.593-3.809 26.216-12.018 29.188-21.859 7.916-61.571 4.909-84.429 4.61a7834.186 7834.186 0 0 0-131.693-1.68c-14.624-.241-86.502.167-96.09-3.547-2.26-.875-3.576-1.584-4.479-3.951-2.619-6.868 2.493-33.727 5.711-40.417 2.183-4.538 5.723-5.813 10.149-7.372 3.529-5.981 13.324-2.042 18.625-8.066 1.019-3.197.94-3.718-.097-6.952-5.39-5.034-12.041 2.983-21.449 1.112 5.594-2.117 26.095-7.054 32.42-8.565 17.281-4.129 36.457-9.668 53.704-13.002 3.024-1.361 28.101-7.505 32.803-8.516 20.305-4.365 43.539-11.411 63.641-14.835z"/><path fill="url(#i)" d="M429.4 137.256c40.235-11.023 81.753-19.426 122.143-30.004 9.187-2.406 23.482-.982 30.897-5.67 19.13-12.098 18.119-28.282 41.348-10.77 11.24.578 21.104 1.044 32.335.84a9260.82 9260.82 0 0 1-2.269 149.54c-3.565-7.809.727-47.923-1.991-54.229-4.206-1.282-11.183-.548-15.813-.314.013 15.229.055 30.041-.553 45.269l-1.256.498c.183 1.056.4 1.947.656 2.987l-.877-1.121.753-1.629-1.098-1.051.113-1.961c-.66 8.044-.423 12.115-7.013 17.642a19.093 19.093 0 0 1-14.307 4.49c-10.508-1.074-15.181-8.434-16.962-17.842-3.553-9.191 4.865-36.915 2.151-47.815-1.3-5.219-21.265-7.595-25.483-6.313-3.651 4.05-6.061 31.817-8.507 40.387l-1.065-.941c2.049-28.091 11.516-60.009 13.108-88.437.102-1.819-.931-2.68-2.015-4.086-4.331-2.347-7.664-2.43-12.425-1.214-34.582 6.16-70.395 16.056-104.82 23.171-7.465 1.542-35.234 8.495-41.395 8.934-17.412 4.453-35.837 8.161-53.413 12.299-5.943 1.399-23.643 5.867-28.985 6.467-19.912 6.472-52.393 10.609-69.82 16.983-4.784.781-8.381 1.537-13.084 2.714 3.529-5.981 13.324-2.042 18.625-8.066 1.019-3.197.94-3.718-.097-6.952-5.39-5.034-12.041 2.983-21.449 1.112 5.594-2.117 26.095-7.054 32.42-8.565 17.281-4.129 36.457-9.668 53.704-13.002 3.024-1.361 28.101-7.505 32.803-8.516 20.305-4.365 43.539-11.411 63.641-14.835z"/><path fill="#68B5EB" d="M429.4 137.256c.2.068.399.142.601.204 6.899 2.142 103.112-23.939 118.818-27.184 4.796-.991 9.403-2.888 14.341-3.084 2.817-.112 5.083.119 7.077 2.131.066 5.284-3.451 7.666-2.802 12.067-.128.168-1.083 1.402-1.102 1.475-20.461 1.21-45.244 9.888-65.956 13.696-23.458 4.313-47.012 12.199-70.808 15.303-2.621.342-14.007 3.247-14.514 5.753-17.412 4.453-35.837 8.161-53.413 12.299-5.943 1.399-23.643 5.867-28.985 6.467-19.912 6.472-52.393 10.609-69.82 16.983-4.784.781-8.381 1.537-13.084 2.714 3.529-5.981 13.324-2.042 18.625-8.066 1.019-3.197.94-3.718-.097-6.952-5.39-5.034-12.041 2.983-21.449 1.112 5.594-2.117 26.095-7.054 32.42-8.565 17.281-4.129 36.457-9.668 53.704-13.002 3.024-1.361 28.101-7.505 32.803-8.516 20.305-4.365 43.539-11.411 63.641-14.835z"/><path fill="#BD76DB" d="M246.832 182.174c5.594-2.117 26.095-7.054 32.42-8.565 17.281-4.129 36.457-9.668 53.704-13.002-5.54 5.456-47.967 12.333-57.37 15.735-3.265 1.181-3.302 9.835-2.05 12.374 18.611-3.866 39.1-9.427 57.828-13.805l1.293 1.472c-19.912 6.472-52.393 10.609-69.82 16.983-4.784.781-8.381 1.537-13.084 2.714 3.529-5.981 13.324-2.042 18.625-8.066 1.019-3.197.94-3.718-.097-6.952-5.39-5.034-12.041 2.983-21.449 1.112z"/><path fill="#280453" d="M595.506 233.931c5.169-19.605 8.287-106.889 14.298-116.99 1.617-2.717 4.912-4.782 7.915-5.557 5.33-1.375 12.623-.649 17.381 2.046 4.333 6.113 1.275 38.6.885 47.812a4298.607 4298.607 0 0 0-2.197 68.399c-.66 8.044-.423 12.115-7.013 17.642a19.093 19.093 0 0 1-14.307 4.49c-10.508-1.074-15.181-8.434-16.962-17.842z"/><path fill="#220240" d="M415.055 157.617c6.161-.439 33.93-7.392 41.395-8.934 34.425-7.115 70.238-17.011 104.82-23.171l1.122 1.215c-3.661 2.062-37.735 8.641-45.254 10.357L442.5 154.8c-2.53.592-5.339.32-7.801.852-37.574 8.112-75.075 16.671-112.43 25.739-10.182 2.471-49.986 15.935-59.432 11.975 17.427-6.374 49.908-10.511 69.82-16.983 5.342-.6 23.042-5.068 28.985-6.467 17.576-4.138 36.001-7.846 53.413-12.299z"/><path fill="#E449CA" d="M246.832 182.174c9.408 1.871 16.059-6.146 21.449-1.112 1.037 3.234 1.116 3.755.097 6.952-5.301 6.024-15.096 2.085-18.625 8.066-4.426 1.559-7.966 2.834-10.149 7.372-3.218 6.69-8.33 33.549-5.711 40.417.903 2.367 2.219 3.076 4.479 3.951 9.588 3.714 81.466 3.306 96.09 3.547 6.373 1.021 12.721 1.129 19.163 1.373-5.647.063-31.188-.52-35.573.646.452 5.473 3.924 2.83.074 9.43-5.681 9.742-23.257 33.997-21.745 44.634 12.334 2.658 44.15-27.16 49.772-21.864-4.582 2.092-15.263 6.846-18.831 9.776-6.665 3.657-11.478 6.86-17.739 11.083-6.028 5.097-17.694 14.129-22.409 19.368 3.595-1.075 4.262-1.41 7.257-3.673 3.406 2.617 9.063 9.162 10.721 13.228-.719 7.221-10.639 5.856-11.826 13.62-3.111 2.844-22.249 21.566-23.451 22.134-6.892 8.576-10.805 14.24-17.002 23.142-6.308-3.193-11.272 3.181-13.982-5.909a51.056 51.056 0 0 0 2.157-3.202c1.549-2.55 2.619-4.693 1.943-7.595-2.752-3.241-2.52-2.448-7.035-3.672-2.68.369-13.34.061-16.615.031-12.743 1.229-31.702.512-44.804.81-5.408.124-11.13-1.543-16.091-1.035l-.405 1.089c2.682 1.762 23.014 2.283 27.939 2.531-1.193.309-2.194.476-3.985.449-21.358-.32-42.737-.623-64.094-.915l-1.401-1.365.429-5.07c-.102-4.716.156-10.379.247-15.172.559-7.347.234-18.223.537-25.997.841-37.777 3.664-77.452 3.473-114.726a6596.08 6596.08 0 0 1 77.86-20.667c11.105-2.966 37.336-10.484 47.786-11.675z"/><path fill="#7928A7" d="m117.713 329.242 1.025.802c4.913 1.018 178.379-20.812 190.845-23.599-6.028 5.097-17.694 14.129-22.409 19.368 3.595-1.075 4.262-1.41 7.257-3.673 3.406 2.617 9.063 9.162 10.721 13.228-.719 7.221-10.639 5.856-11.826 13.62-3.111 2.844-22.249 21.566-23.451 22.134-6.892 8.576-10.805 14.24-17.002 23.142-6.308-3.193-11.272 3.181-13.982-5.909a51.056 51.056 0 0 0 2.157-3.202c1.549-2.55 2.619-4.693 1.943-7.595-2.752-3.241-2.52-2.448-7.035-3.672-2.68.369-13.34.061-16.615.031-12.743 1.229-31.702.512-44.804.81-5.408.124-11.13-1.543-16.091-1.035l-.405 1.089c2.682 1.762 23.014 2.283 27.939 2.531-1.193.309-2.194.476-3.985.449-21.358-.32-42.737-.623-64.094-.915l-1.401-1.365.429-5.07c-.102-4.716.156-10.379.247-15.172.559-7.347.234-18.223.537-25.997z"/><path fill="url(#j)" d="M287.174 325.813c3.595-1.075 4.262-1.41 7.257-3.673 3.406 2.617 9.063 9.162 10.721 13.228-.719 7.221-10.639 5.856-11.826 13.62-3.111 2.844-22.249 21.566-23.451 22.134-6.892 8.576-10.805 14.24-17.002 23.142-6.308-3.193-11.272 3.181-13.982-5.909a51.056 51.056 0 0 0 2.157-3.202c1.549-2.55 2.619-4.693 1.943-7.595-2.752-3.241-2.52-2.448-7.035-3.672-2.68.369-13.34.061-16.615.031-12.743 1.229-31.702.512-44.804.81-5.408.124-11.13-1.543-16.091-1.035l-.405 1.089c2.682 1.762 23.014 2.283 27.939 2.531-1.193.309-2.194.476-3.985.449-21.358-.32-42.737-.623-64.094-.915l-1.401-1.365.429-5.07c-.102-4.716.156-10.379.247-15.172 46.319-1.25 95.647-.407 142.043-.277 6.819-8.296 19.517-22.664 27.955-29.149z"/><path fill="#7928A7" d="M116.929 370.411c23.208.418 46.41 1.114 69.6 2.087 8.068.282 25.598.233 32.812 1.419-12.743 1.229-31.702.512-44.804.81-5.408.124-11.13-1.543-16.091-1.035l-.405 1.089c2.682 1.762 23.014 2.283 27.939 2.531-1.193.309-2.194.476-3.985.449-21.358-.32-42.737-.623-64.094-.915l-1.401-1.365.429-5.07z"/><path fill="url(#k)" d="M264.345 374.766c2.123-2.193 2.702-2.419 5.53-3.644-6.892 8.576-10.805 14.24-17.002 23.142-6.308-3.193-11.272 3.181-13.982-5.909a51.056 51.056 0 0 0 2.157-3.202c1.549-2.55 2.619-4.693 1.943-7.595-2.752-3.241-2.52-2.448-7.035-3.672 8.739-.307 18.599 1.067 28.389.88z"/><path fill="#280453" d="M221.966 200.583c2.638.419 3.018.652 5.346 1.94 2.884 5.654-8.946 43.01-14.284 49.071-4.141-.821-7.499-2.224-5.892-7.321 3.692-11.717 8.019-34.129 14.83-43.69zM202.095 205.299c2.101.516 2.347.616 3.992 2.018 2.347 7.065-8.572 41.132-14.599 47.038-.572-.298-2.754-1.446-2.97-1.83-5.037-8.977 7.427-41.548 13.577-47.226zM181.196 210.259c2.091.617 2.416.994 3.997 2.408 2.706 7.593-7.536 37.575-14.079 43.718-1.513-.735-2.517-1.627-3.833-2.66-3.084-7.368 7.651-37.139 13.915-43.466z"/><path fill="url(#l)" d="M603.025 395.153c41.794.177 90.54.334 132.138 2.16 15.302 25.536 31.928 49.281 48.915 73.644 5.881 8.435 25.963 33.305 29.677 40.824l2.137 2.51c-5.633 1.226-42.553.977-49.847.767-20.942-.604-46.365.865-66.606-.212-4.291.473-18.143.169-23.06.139-13.489-.083-28.003.252-41.395-.394-.145-36.51-4.932-66.471-19.671-100.594-2.796-6.473-9.611-13.505-12.288-18.844z"/><path fill="#EC118E" d="M699.439 514.846c3.449-.978 9.502-.704 13.345-1.125 20.496-2.249 39.551-1.043 59.942-.714 9.498.153 24.619-1.906 34.42-3.1a108.048 108.048 0 0 0 2.965 3.931c2.659-.486 1.681.021 3.644-2.057l2.137 2.51c-5.633 1.226-42.553.977-49.847.767-20.942-.604-46.365.865-66.606-.212z"/><path fill="#798DD9" d="m562.602 219.249 1.065.941c2.446-8.57 4.856-36.337 8.507-40.387 4.218-1.282 24.183 1.094 25.483 6.313 2.714 10.9-5.704 38.624-2.151 47.815 1.781 9.408 6.454 16.768 16.962 17.842a19.093 19.093 0 0 0 14.307-4.49c6.59-5.527 6.353-9.598 7.013-17.642l-.113 1.961 1.098 1.051-.753 1.629.877 1.121c-.256-1.04-.473-1.931-.656-2.987l1.256-.498c.608-15.228.566-30.04.553-45.269 4.63-.234 11.607-.968 15.813.314 2.718 6.306-1.574 46.42 1.991 54.229-.071 22.946 4.038 26.577 14.882 46.836-2.664.838-3.8.287-5.594.453-17.3 1.6-134.616 2.973-142.51 7.157l-11.938-5.074c-.52-.406-1.214-.908-1.827-1.196-38.006-17.915-83.881-21.266-124.952-14.447-8.74 1.451-27.218 7.854-35.762 10.665-5.622-5.296-37.438 24.522-49.772 21.864-1.512-10.637 16.064-34.892 21.745-44.634 3.85-6.6.378-3.957-.074-9.43 4.385-1.166 29.926-.583 35.573-.646-6.442-.244-12.79-.352-19.163-1.373 43.901.191 87.801.751 131.693 1.68 22.858.299 62.57 3.306 84.429-4.61 8.209-2.972 9.789-20.595 12.018-29.188z"/><path fill="#5962C1" d="m668.736 288.028 23.219 41.279c5.339 9.308 12.615 21.057 17.006 30.577 3.364 4.548 4.951 7.298 7.679 12.277 2.169 3.175 3.69 5.491 5.574 8.877-43.506-.502-86.329-1.943-129.89-1.855l-.939-1.826c-3.629 1.328-11.25-4.225-14.616 2.533-13.938-21.428-33.914-34.86-54.866-48.416l.503-1.393-3.27-2.389c-1.991-7.3 16.65-13.875 22.291-15.934-8.116-8.768-24.884-14.214-32.733-21.194l11.938 5.074c7.894-4.184 125.21-5.557 142.51-7.157 1.794-.166 2.93.385 5.594-.453z"/><path fill="#38CDF5" d="M597.126 358.184c37.165-.16 74.858 2.021 111.835 1.7 3.364 4.548 4.951 7.298 7.679 12.277 2.169 3.175 3.69 5.491 5.574 8.877-43.506-.502-86.329-1.943-129.89-1.855l-.939-1.826c-.918-3.605-1.958-4.952-.733-7.938l3.039-.794-3.149-.797c-6.994-6.672 1.49-8.764 6.584-9.644z"/><path fill="#5D50BE" d="M593.691 368.625c26.035.852 52.076 1.508 78.12 1.967 12.964.262 32.394.047 44.829 1.569 2.169 3.175 3.69 5.491 5.574 8.877-43.506-.502-86.329-1.943-129.89-1.855l-.939-1.826c-.918-3.605-1.958-4.952-.733-7.938l3.039-.794z"/><path fill="url(#m)" d="m508.694 290.564 11.938 5.074c29.606 17.23 48.007 34.026 66.325 61.908.425.647 8.692.653 10.169.638-5.094.88-13.578 2.972-6.584 9.644l3.149.797-3.039.794c-1.225 2.986-.185 4.333.733 7.938-3.629 1.328-11.25-4.225-14.616 2.533-13.938-21.428-33.914-34.86-54.866-48.416l.503-1.393-3.27-2.389c-1.991-7.3 16.65-13.875 22.291-15.934-8.116-8.768-24.884-14.214-32.733-21.194z"/><path fill="url(#n)" d="m117.76 390.96 77.009 2.811c6.649.232 30.153.606 35.184 1.881-1.38 2.876.907 2.218-.198 4.704-14.045 31.602-21.001 61.825-21.209 96.431-18.597-5.026-38.085-13.67-56.52-19.786-10.907-3.619-23.027-8.206-33.462-12.834-.764-23.883-.582-49.21-.804-73.207z"/><path fill="url(#o)" d="M346.153 285.586c8.544-2.811 27.022-9.214 35.762-10.665 41.071-6.819 86.946-3.468 124.952 14.447.613.288 1.307.79 1.827 1.196 7.849 6.98 24.617 12.426 32.733 21.194-5.641 2.059-24.282 8.634-22.291 15.934l3.27 2.389-.503 1.393a464.516 464.516 0 0 0-18.719-8.821c-55.333-24.378-110.5-22.734-166.056-1.139-18.455 10.035-27.186 15.197-43.802 27.474 1.187-7.764 11.107-6.399 11.826-13.62-1.658-4.066-7.315-10.611-10.721-13.228-2.995 2.263-3.662 2.598-7.257 3.673 4.715-5.239 16.381-14.271 22.409-19.368 6.261-4.223 11.074-7.426 17.739-11.083 3.568-2.93 14.249-7.684 18.831-9.776z"/><path fill="url(#p)" d="M309.583 306.445c6.261-4.223 11.074-7.426 17.739-11.083-1.745 4.26-14.316 11.618-18.992 14.978 2.796 2.821 13.251 15.026 15.034 15.785 6.729-2.274 8.369-5.588 13.764-4.611-18.455 10.035-27.186 15.197-43.802 27.474 1.187-7.764 11.107-6.399 11.826-13.62-1.658-4.066-7.315-10.611-10.721-13.228-2.995 2.263-3.662 2.598-7.257 3.673 4.715-5.239 16.381-14.271 22.409-19.368z"/><path fill="url(#q)" d="M238.891 388.355c2.71 9.09 7.674 2.716 13.982 5.909-19.605 36.596-23.046 63.37-22.523 104.992-6.326.517-15.589-1.166-21.804-2.469.208-34.606 7.164-64.829 21.209-96.431 1.105-2.486-1.182-1.828.198-4.704 4.696-1.702 5.977-3.565 8.938-7.297z"/><path fill="#5962C1" d="M576.769 379.89c3.366-6.758 10.987-1.205 14.616-2.533l.939 1.826c1.762 2.854 5.469 8.516 6.793 11.291-1.96 5.623-2.328 8.09-3.196 14.023-3.26-3.722-6.703-7.379-9.205-11.64l-5.975-7.722-3.972-5.245z"/><path fill="#798DD9" d="m580.741 385.135 2.361-1.223.273-1.533.996-.644c1.417 3.343 2.171 5.673 3.215 9.093l-.87 2.029-5.975-7.722z"/><path fill="#EC118E" d="M408.128 347.176c84.73-7.843 159.827 54.361 167.896 139.07 8.069 84.709-53.934 159.973-138.622 168.268-85.007 8.326-160.618-53.963-168.717-138.993-8.099-85.03 54.392-160.473 139.443-168.345z"/><path fill="#38CDF5" d="M407.621 362.963c76.654-8.101 145.331 47.552 153.289 124.221 7.959 76.67-47.822 145.242-124.506 153.058-76.482 7.796-144.835-47.807-152.773-124.275-7.938-76.467 47.537-144.924 123.99-153.004z"/><path fill="#280453" d="M408.795 378.232c68.13-7.456 129.386 41.779 136.755 109.919 7.369 68.14-41.944 129.332-110.093 136.614-68.026 7.269-129.084-41.935-136.44-109.952-7.356-68.017 41.771-129.138 109.778-136.581z"/><path fill="#EC118E" d="M422.195 444.754c2.484 3.274 8.5 47.167 10.509 55.784-14.039 14.631-48.54 40.365-66.016 54.005-2.656 1.894-4.111 3.208-6.894 2.826l-.175-2.129c2.069-5.864 49.643-52.214 57.813-60.376.404-9.598 2.075-43.019 4.763-50.11z"/><path fill="#D5138F" d="M505.369 543.459c3.575.192 20.178 7.671 21.724 10.338l-3.503 5.264c-4.813.286-14.955-6.242-18.582-9.587-1.278-3.293-1.08-2.039.361-6.015z"/><path fill="#EC118E" d="M483.131 401.666c2.753 2.815 2.018 1.52 2.918 5.304-1.192 6.877-9.203 15.011-13.88 20.451-1.771-2.025-1.97-2.303-2.506-4.93 1.505-7.572 8.482-14.809 13.468-20.825zM323.588 441.369c3.258.956 17.271 7.142 19.405 10.602 1.203 1.951.143 4.501-.372 6.876-6.779-3.629-14.195-4.741-19.702-10.592-1.166-3.73-.9-2.481.669-6.886zM360.234 403.306c7.893.708 16.873 17.665 15.244 23.908-8.097.219-16.459-17.133-15.244-23.908z"/><path fill="#D5138F" d="M530.429 494.355c3.202-.537 3.71-.588 6.913-.116 2.573 2.289 2.139 1.218 2.359 4.235-3.695 5.781-7.319 4.612-13.725 4.482-3.545-.109-7.791.233-9.267-3.493 2.427-4.784 9.022-4.67 13.72-5.108z"/><path fill="#EC118E" d="M373.814 581.368c10.458 4.386-2.76 18.474-6.898 23.167-3.706-1.863-3.062-.848-4.213-4.008 1.401-5.938 7.449-13.752 11.111-19.159z"/><path fill="#D5138F" d="M307.321 494c6.027.249 18.312-.289 22.328 4.493l-.563 2.977c-6.492 1.454-14.696 3.122-20.48-.21-2.043-3.09-1.384-3.104-1.285-7.26z"/><path fill="#EC118E" d="M469.542 581.31c7.737.673 15.824 14.395 14.889 21.846-9.009-.056-15.63-13.954-14.889-21.846z"/><path fill="#D5138F" d="M518.826 443.837c3.265-.462 4.868 1.214 7.008 3.121-1.754 4.746-11.633 8.199-16.177 9.957-2.779.36-4.395-.024-6.481-1.697l.571-2.205c3.899-3.721 10.192-6.627 15.079-9.176zM338.888 543.906c2.171 1.248 2.658 3.437 2.373 5.677-3.469 4.695-10.65 7.585-15.923 10.061-3.061-1.765-2.25-.791-3.643-3.775 1.777-5.33 11.658-9.011 17.193-11.963z"/><path fill="#EC118E" d="M422.871 385.193c1.819.826 3.05.927 3.555 2.801 1.545 5.73.666 19.265-1.733 24.408-7.691-2.838-5.645-23.336-1.822-27.209zM424.078 595.662l2.272 1.424c2.78 4.351 2.903 18.844-.207 22.945-2.9-1.608-4.792-1.891-5.055-5.67-.382-5.473.222-13.98 2.99-18.699z"/><path fill="#800868" d="M394.287 392.354c2.374.199 2.787.182 4.737 1.641 3.016 5.356 3.043 9.777 2.737 15.844l-2.949-1.5c-3.361-4.994-5.257-9.873-4.525-15.985zM452.079 392.541l1.391 1.71c.142 6.166-1.108 10.126-4.36 15.295l-2.065-1.736c-.304-6.302 1.657-10.121 5.034-15.269z"/><path fill="#9E0A6E" d="m398.487 597.751 1.587 1.751c1.622 5.268-1.15 10.288-3.266 15.252-2.376-.903-1.615-.276-2.963-2.293.204-4.791 2.785-10.156 4.642-14.71zM449.68 599.578c3.908 2.719 5.969 9.413 5.976 14.016l-3.107-1.131c-3.572-4.246-3.314-7.611-2.869-12.885z"/><path fill="#800868" d="M517.713 523.358c3.424-.198 11.945-.776 14.589.989l-.575 1.396c-5.837 2.695-9.669 2.748-14.014-2.385zM314.887 473.008c5.218-.448 10.424 1.28 13.236 5.795-5.807-.248-10.891-.209-13.236-5.795zM343.506 568.337c1.668.148 1.841.394 3.284 1.349-.304 3.059-2.663 4.833-4.979 7.615-.852.521-1.484.396-2.489.379-.295-2.682 2.679-6.792 4.184-9.343z"/><path fill="#9E0A6E" d="M529.081 470.699c1.832.48 1.182.071 2.42 1.633-1.469 2.727-5.755 4.621-8.622 6.23-.991-.29-1.438-.836-2.202-1.531 1.175-2.743 5.619-4.73 8.404-6.332z"/><path fill="#800868" d="M320.814 523.067c1.815-.266 2.571-.039 4.345.253-1.697 2.362-3.947 2.877-6.826 4.26l-3.038-.03-1.116-1.274c2.63-3.01 2.172-2.179 6.635-3.209zM501.152 420.687l1.546 1.846c-1.094 3.588-1.877 3.476-4.861 6.25l-.983-.996c.346-3.32 1.913-4.202 4.298-7.1z"/><path fill="#EC118E" d="M1578.16 347.174c84.84-5.576 158.15 58.669 163.74 143.51 5.6 84.84-58.62 158.16-143.46 163.781-84.87 5.623-158.23-58.632-163.83-143.504-5.6-84.872 58.68-158.209 143.55-163.787z"/><path fill="#38CDF5" d="M1575.28 362.908c76.36-7.068 144.03 49.032 151.23 125.382 7.2 76.35-48.78 144.115-125.11 151.454-76.53 7.357-144.51-48.794-151.73-125.336-7.22-76.542 49.05-144.415 125.61-151.5z"/><path fill="#280453" d="M1581.69 377.767c68.33-3.387 126.43 49.327 129.68 117.659 3.26 68.332-49.57 126.332-117.9 129.457-68.16 3.116-125.96-49.535-129.21-117.682-3.25-68.147 49.29-126.056 117.43-129.434z"/><path fill="#EC118E" d="M1589.13 447.565c4.06 3.281 5.2 42.478 5.5 49.491 8.01 8 57.58 55.129 57.41 62.209l-1.75.545-2.98-1.635c-20.14-15.562-50.42-38.109-68-55.378 4.53-17.896 5.73-37.698 9.82-55.232z"/><path fill="#D5138F" d="M1490.46 441.728c4.69 2.8 9.91 4.773 14.44 7.762 4.95 3.266 3.62 4.958 1.95 9.457-6.09-2.604-15.4-5.654-19.05-10.793-.23-3.446.36-3.07 2.66-6.426z"/><path fill="#EC118E" d="M1649.69 403.435c11.37 1.115-5.01 20.09-7.75 23.687-2.18-.776-2.4-.941-4-2.628-.78-5.741 8.14-16.168 11.75-21.059z"/><path fill="#D5138F" d="M1683.26 442.727c2.39-.397 4.85.246 6.46 2.003l-.11 1.867c-3.54 5.514-9.47 7.664-15.28 10.039-.75.103-3.99-.308-4.96-.408l-.87-1.592c1.13-5.756 9.81-9.37 14.76-11.909zM1527.59 403.394l2.92.247c6.46 3.207 13.55 15.274 11.76 22.803-6.96-.872-16.3-16.456-14.68-23.05zM1637.13 580.673c6.56.524 12.93 9.049 14.93 15.047.79 2.392-.78 3.805-2.04 5.903l-1.74.068c-5.05-2.605-12.48-15.097-11.15-21.018zM1697.71 494.408c3.46-.611 4.77-.568 7.31 1.481l.16 2.358c-3.44 5.734-5.89 4.744-12.21 4.747-3.69-.049-7.75.477-8.82-3.703 3.5-5.061 7.83-4.474 13.56-4.883z"/><path fill="#EC118E" d="M1541.49 582.528c7.92 6.121-2.94 17.451-7.66 22.453-2.1-1.189-2.7-1.397-4-3.466.39-6.755 7.26-13.65 11.66-18.987z"/><path fill="#D5138F" d="M1669.64 543.382c4.61.891 17.73 6.812 19.69 11.204l-1.65 3.753c-5.1 1.74-14.68-4.748-17.92-8.718-1.53-1.875-.55-4.048-.12-6.239zM1471.61 494.147c6.45.674 14.69-.59 19.84 1.674 1.61 2.976 1.06 2.249.19 6.376-5.94.486-12.97 1.601-18.24-.919-2.43-3.146-1.7-2.544-1.79-7.131zM1500.05 544.86c1.38-.168 2.84.301 4.22.619l.81 1.651c-1.71 4.984-11.56 9.62-16.28 12.11-1.31.035-3-.851-4.27-1.39-2.24-6.075 10.79-10.758 15.52-12.99z"/><path fill="#EC118E" d="M1590.31 386.568c5.95 2.529 4.44 20.106.19 25.156-5.03-2.981-4.15-11.83-4.16-17.133 0-4.611.75-5.156 3.97-8.023zM1589.05 596.184c.94.256 3.78.858 4.22 1.376 3.56 4.178 1.66 17.507 1.27 22.911-10.38-3.996-6.28-14.097-5.49-24.287z"/><path fill="#9E0A6E" d="M1558.78 392.895c6.46 3.497 7.95 12.127 7.1 18.785-3.88-3.042-7.99-14.092-7.1-18.785z"/><path fill="#800868" d="M1565.07 597.515c2.98 3.434 1.72 14.191-1.59 17.221-4.89-5.307-.91-11.593 1.59-17.221zM1615.99 596.78c4.5 3.074 5.88 11.323 6.05 16.458-.8-.17-2.34-.773-3.18-1.074-3.66-4.777-2.98-9.448-2.87-15.384zM1620.56 392.317l2.1 1.376c.77 5.022-1.47 9.763-3.42 14.321-.51-.113-1.63-.757-2.16-1.032-1.65-4.663 1.46-10.368 3.48-14.665z"/><path fill="#9E0A6E" d="M1683.86 521.681c4.14.447 10.2 1.006 13.48 3.482l.2 1.912c-5.08-.335-10.18 1.248-14-1.639l.32-3.755z"/><path fill="#800868" d="M1507.2 422.795c5.52.297 10.51 4.389 10.95 10.103-4.46-.607-9.43-5.992-10.95-10.103zM1694.25 471.926c.61.055 2.48.52 3.18.679l-.22 1.471c-4.18 2.434-6.44 2.549-11.19 3.254l-2.71-.029.45-1.303c4.35-2.635 5.52-2.92 10.49-4.072z"/><path fill="#9E0A6E" d="M1483.41 521.66c2.78.147 3.68.316 6.39.981l.21 1.591-2.83 2.738c-3.04.303-4.21.644-6.76-.934l.09-1.894 2.9-2.482z"/><path fill="url(#r)" d="m745.429 396.26 11.332.913 6.149 8.867 91.083 1.975 2.549-10.087c40.311 1.735 81.413 1.561 121.817 2.36a24164.016 24164.016 0 0 0 272.991 4.731 5576.181 5576.181 0 0 0-28.96 73.733c-4.62 12.069-9.64 24.564-13.27 36.917-34.92.667-72.28.025-107.4.015l-270.802.248c-15.909-17.006-38.211-50.558-52.19-69.796-8.574-11.8-26.116-37.274-33.299-49.876z"/><path fill="url(#s)" d="M1433.9 383.055c4.92-.452 25.01-.382 26.66-.856-11.9 12.984-18.22 21.057-27.76 35.854-13.21 25.134-18.54 41.891-20.86 70.55-.33 9.009-.58 18.021-.74 27.035-15.16.157-30.32.143-45.48-.04-48.09 1.019-99.43-.121-147.97.136 1.75-5.021 3.99-10.475 5.92-15.481 12.13-31.05 25.86-64.113 36.81-95.294 17.53 1.081 35.13.927 52.71 1.379l102.15 2.628 2.4-1.275c.36-2.363 6.32-10.903 7.99-13.475.93-.826 7.02-9.556 8.17-11.161z"/><path fill="#E449CA" d="M1433.9 383.055c4.92-.452 25.01-.382 26.66-.856-11.9 12.984-18.22 21.057-27.76 35.854-13.21 25.134-18.54 41.891-20.86 70.55-11.8 14.879 15.48 25.809-22.45 24.907-1.13-44.255 3.42-66.918 25.85-104.544l2.4-1.275c.36-2.363 6.32-10.903 7.99-13.475.93-.826 7.02-9.556 8.17-11.161z"/><path fill="#798DD9" d="M1433.9 383.055c4.92-.452 25.01-.382 26.66-.856-11.9 12.984-18.22 21.057-27.76 35.854.74-3.653 1.07-2.616-.27-5.657.43-5.108 8.03-1.942 7.06-8.732-13.05-17.865-14.55.691-21.85 4.027.36-2.363 6.32-10.903 7.99-13.475.93-.826 7.02-9.556 8.17-11.161z"/><path fill="#D5138F" d="M1217.75 515.734c1.75-5.021 3.99-10.475 5.92-15.481 20.01 21.902 133.85 9.007 142.05 15.345-48.09 1.019-99.43-.121-147.97.136z"/><path fill="url(#t)" d="M1778.47 414.958c31.31.978 63.79 4.395 95.18 5.966 13.2.661 27.49 2.282 40.59 2.215l.42 56.934c-25.57 6.504-51.66 11.982-77.52 17.258-12.18 2.485-28.37 6.978-40.42 8.323 1.44-25.115-9.79-67.328-18.25-90.696z"/><path fill="#D5138F" d="m111.759 216.095 1.091.994c.356 2.846.312 5.656.254 8.517-.722 35.402-3.07 70.766-3.635 106.168-17.312 1.291-35.753 3.464-53.11 5.234-2.335-4.195 7.682-88.355 9.957-98.769 10.418-13.133 29.703-17.338 45.443-22.144z"/><path fill="#7928A7" d="M1747.48 419.006c-.78-8.497-10.36-16.355-13.58-25.205l.91-1.44c2.95-.413 4.56.469 7.26 1.574 3.32 4.049 8.12 11.21 9.23 16.288l-2.77 1.077c1.62 1.609 4.43 1.152 7.24 1.283 1.05.161 5.32.754 6.03 1.037l16.67 1.338c8.46 23.368 19.69 65.581 18.25 90.696-.66 4.549-.18 35.963 4.63 37.268 16.96 4.606 100.18-7.272 112.25.858 1.3 2.948 1.07 1.742.66 5.095-2.75 2.202-115.21 4.719-128.89 5.479-2.31-12.669-3.27-32.377-4.3-45.674l-12.97.254c-2.62-38.704-4.66-54.15-20.62-89.928z"/><path fill="url(#u)" d="m1761.8 413.62 16.67 1.338c8.46 23.368 19.69 65.581 18.25 90.696-5.25 1.202-10.76 1.96-16.1 2.776.62-21.047-2.13-41.756-7.28-62.131-1.68-6.647-11.82-28.438-11.54-32.679z"/><path fill="url(#v)" d="M1675.72 324.124c3.52 1.703 4.52 1.839 8.41 2.391 5.54 1.717 15.65 8.659 20.83 12.156 11.82 9.694 34.88 29.68 43.03 42.815-.14.522-1.84 9.957-1.86 10.327-6.3-.334-10.65-.816-16.86.686-25.02-27.371-44.82-40.359-80.04-51.788-2.07-1.878-3.07-3.316-3.63-5.989 3.52-4.286 7.55.843 15.38-8.931 4-1.594 10.25-1.493 14.74-1.667z"/><path fill="#50DEF6" d="M1919.33 402.139c.49-3.431.1-5.54 2.28-7.395 15.64-.48 39.01 3.404 55.21 4.491 4.72.316 15.67 2.303 19.8 2.186l-.7 8.203.52 7.684c-20.7-.455-56.63-3.076-77.07-5.474l-.04-9.695z"/><path fill="#7928A7" d="m1919.37 411.834-.04-9.695c.15.146 1.66 1.556 1.66 1.556 24.79 2.383 50.12 3.916 74.93 5.929l.52 7.684c-20.7-.455-56.63-3.076-77.07-5.474z"/><path fill="#EC118E" d="m98.052 359.447 9.817-.336.615 17.623c-23.152.652-48.408.251-71.734.354-5.612-.034-5.372.886-9.067-2.021-1.358-3.301-1.354-1.999-.222-5.173 10.855-10.865 53.234-9.738 70.59-10.447z"/><path fill="#D5138F" d="M1915.19 318.456c15.44.566 42.46 5.644 58.18 8.213 2.71 3.172 3.84 5.251 5.9 8.812-6.42.403-58.57-5.237-62.22-7.932-1.96-2.467-1.71-5.868-1.86-9.093z"/><path fill="#7928A7" d="M1996.62 401.421c2.97 1.151 3.39 1.664 5.58 4.027 5.19-.858 12.65.941 17.76 2.386l.03 13.549c-6.57-.763-13.75-1.592-19.96-3.95-2.31.704-1.36.744-3.59-.125l-.52-7.684.7-8.203z"/><path fill="#220240" d="M1996.62 401.421c2.97 1.151 3.39 1.664 5.58 4.027-.61 4.461-1.13 7.604-2.17 11.985-2.31.704-1.36.744-3.59-.125l-.52-7.684.7-8.203z"/></svg>
